<?xml version="1.0" encoding="utf-8"?>
<svg version="1.1" xmlns:xlink="http://www.w3.org/1999/xlink" width="38px" height="38px" xmlns="http://www.w3.org/2000/svg">
  <g transform="matrix(1 0 0 1 -1084 -187 )">
    <path d="M 1084 187  L 1122 187  L 1122 225  L 1084 225  L 1084 187  " fill-rule="nonzero" fill="#cccccc" stroke="none" />
    <path d="M 1087 190  L 1119 190  L 1119 222  L 1087 222  L 1087 190  " fill-rule="nonzero" fill="#ffffff" stroke="none" />
    <path d="M 1106.6100000000001 198.39999999999998  C 1105.0140000000001 198.39999999999998  1103.76 197.146  1103.76 195.54999999999998  C 1103.76 193.95399999999998  1105.0140000000001 192.7  1106.6100000000001 192.7  C 1108.2060000000001 192.7  1109.46 193.95399999999998  1109.46 195.54999999999998  C 1109.46 197.146  1108.2060000000001 198.39999999999998  1106.6100000000001 198.39999999999998  " fill-rule="nonzero" fill="#cccccc" stroke="none" />
    <path d="M 1088 221  L 1088 204.5  L 1095.5 197  L 1106 203  L 1112 201.5  L 1118 203  L 1118 221  L 1088 221  " fill-rule="nonzero" fill="#169bd5" stroke="none" />
  </g>
</svg>