<?xml version="1.0" encoding="utf-8"?>
<svg version="1.1" xmlns:xlink="http://www.w3.org/1999/xlink" width="22px" height="11px" xmlns="http://www.w3.org/2000/svg">
  <g transform="matrix(1 0 0 1 -581 -183 )">
    <path d="M 20.635793685913086 0.3457011598545288  C 20.20122528076172 0.1201272636161766  19.770177841186523 0  18.581485748291016 0  C 18.581485748291016 0  3.190651655197144 0.0015973471183352678  3.190651655197144 0.0015973471183352678  C 2.172333240509033 0.016485621854971787  1.7698024511337282 0.135165518544436  1.3642057180404663 0.3457011598545288  C 0.9296377897262573 0.5712750416299888  0.5885863900184631 0.9022955271018401  0.3561769425868988 1.3240820575905423  C 0.12376748025417328 1.7458685880792446  0 2.164239214847767  0 3.3179693451480117  C 0 3.3179693451480117  0.0016457515303045511 7.903190722274521  0.0016457515303045511 7.903190722274521  C 0.013698163675144317 8.679765187425199  0.09176771342754364 9.087366976103137  0.22988931834697723 9.417345844082154  C 0.22988931834697723 9.417345844082154  0.31114810705184937 9.591387428715297  0.31114810705184937 9.591387428715297  C 0.31114810705184937 9.591387428715297  0.3561769425868988 9.67591828951887  0.3561769425868988 9.67591828951887  C 0.5885863900184631 10.09770528282012  0.9296377897262573 10.428725479034128  1.3642057180404663 10.654299389735373  C 1.7987736463546753 10.879873300436618  2.2298221588134766 11  3.418513774871826 11  C 3.418513774871826 11  18.581485748291016 11  18.581485748291016 11  C 19.770177841186523 11  20.20122528076172 10.879873300436618  20.635793685913086 10.654299389735373  C 21.070362091064453 10.428725479034128  21.411415100097656 10.09770528282012  21.643823623657227 9.67591828951887  C 21.659317016601562 9.647799650298838  21.674327850341797 9.619694895455273  21.688852310180664 9.591387428715297  C 21.688852310180664 9.591387428715297  21.770111083984375 9.417345844082154  21.770111083984375 9.417345844082154  C 21.92078971862793 9.057369317934635  22 8.605015407029752  22 7.682031117664537  C 22 7.682031117664537  22 3.3179693451480117  22 3.3179693451480117  C 22 2.164239214847767  21.876232147216797 1.7458685880792446  21.643823623657227 1.3240820575905423  C 21.411415100097656 0.9022955271018401  21.070362091064453 0.5712750416299888  20.635793685913086 0.3457011598545288  Z M 3.029195785522461 0.975041097754341  C 3.029195785522461 0.975041097754341  3.418513774871826 1  3.418513774871826 1  L 18.581485748291016 1  C 18.581485748291016 1  18.97080421447754 0.975041097754341  18.97080421447754 0.975041097754341  C 19.613161087036133 0.9917061677177139  19.88564682006836 1.056989927347686  20.164196014404297 1.2015786998855003  C 20.424495697021484 1.3366939309539214  20.622800827026367 1.5291669096432547  20.76201057434082 1.7818104949224833  C 20.910980224609375 2.052167999103995  20.978242874145508 2.3166373706323222  20.995412826538086 2.9401018742982603  C 20.995412826538086 2.9401018742982603  21 3.3179693451480117  21 3.3179693451480117  L 21 7.682031117664537  C 21 7.682031117664537  20.995412826538086 8.059899051326838  20.995412826538086 8.059899051326838  C 20.978242874145508 8.683363092180228  20.910980224609375 8.947832695114828  20.76201057434082 9.21819019929634  C 20.622800827026367 9.470834015981843  20.424495697021484 9.663306647561765  20.164196014404297 9.798421994333323  C 19.910968780517578 9.92986631196713  19.66275405883789 9.995768967678096  19.137104034423828 10.01918543140146  C 19.137104034423828 10.01918543140146  18.786163330078125 10.028322276741541  18.786163330078125 10.028322276741541  C 18.786163330078125 10.028322276741541  3.213836908340454 10.028322276741541  3.213836908340454 10.028322276741541  C 3.1490447521209717 10.02758825603901  3.0875918865203857 10.026474729046393  3.029195785522461 10.024959480761346  C 3.029195785522461 10.024959480761346  2.7132411003112793 10.01086313614742  2.7132411003112793 10.01086313614742  C 2.287552833557129 9.981932723716644  2.063709259033203 9.91672150995371  1.8358047008514404 9.798421994333323  C 1.575505256652832 9.663306647561765  1.3771997690200806 9.470834015981843  1.237990140914917 9.21819019929634  C 1.0619343519210815 8.898676448672699  1 8.58738687704274  1 7.682031117664537  C 1 7.682031117664537  1 3.3179693451480117  1 3.3179693451480117  C 1 3.3179693451480117  1.0045877695083618 2.9401018742982603  1.0045877695083618 2.9401018742982603  C 1.0217578411102295 2.3166373706323222  1.0890198945999146 2.052167999103995  1.237990140914917 1.7818104949224833  C 1.3771997690200806 1.5291669096432547  1.575505256652832 1.3366939309539214  1.8358047008514404 1.2015786998855003  C 2.1143548488616943 1.056989927347686  2.386838436126709 0.9917061677177139  3.029195785522461 0.975041097754341  Z " fill-rule="nonzero" fill="#fafafa" stroke="none" fill-opacity="0.4" transform="matrix(1 0 0 1 581 183 )" />
  </g>
</svg>