<?xml version="1.0" encoding="utf-8"?>
<svg version="1.1" xmlns:xlink="http://www.w3.org/1999/xlink" width="9px" height="6px" xmlns="http://www.w3.org/2000/svg">
  <g transform="matrix(1 0 0 1 -5 -6 )">
    <path d="M 3.165018804477289 5.775507036450994  C 2.9913574324810224 5.937351430827629  2.7062329852210496 5.930270328182029  2.527465853406629 5.763667600987333  C 2.527465853406629 5.763667600987333  0.09436990299243217 3.496134320394253  0.09436990299243217 3.496134320394253  C -0.015958162190928857 3.3933136488362265  -0.03379785825975189 3.233436170120694  0.0634515192025609 3.1190087010859426  C 0.0634515192025609 3.1190087010859426  0.29083751394519397 2.8514573341640013  0.29083751394519397 2.8514573341640013  C 0.38404236708259987 2.74178881263133  0.5583925773104325 2.7142443790809354  0.6816245969979815 2.791012041043075  C 0.6816245969979815 2.791012041043075  2.649719236247263 4.01704099324628  2.649719236247263 4.01704099324628  C 2.753534684785868 4.081713058834998  2.9322013362701114 4.073290460449698  3.0291295775201093 3.9998951796670323  C 3.0291295775201093 3.9998951796670323  8.229660933631083 0.06198756700063086  8.229660933631083 0.06198756700063086  C 8.346551357319678 -0.026523328861992466  8.52965255915221 -0.018979616003343837  8.63210683746861 0.07650304910980593  C 8.63210683746861 0.07650304910980593  8.76020836681164 0.1958877700579592  8.76020836681164 0.1958877700579592  C 8.871689990051172 0.29978350455503455  8.86358573568439 0.4647053124172771  8.746719950242566 0.5736188379224814  C 8.746719950242566 0.5736188379224814  3.165018804477289 5.775507036450994  3.165018804477289 5.775507036450994  Z " fill-rule="nonzero" fill="#ffffff" stroke="none" transform="matrix(1 0 0 1 5 6 )" />
  </g>
</svg>