<?xml version="1.0" encoding="utf-8"?>
<svg version="1.1" xmlns:xlink="http://www.w3.org/1999/xlink" width="15px" height="14px" xmlns="http://www.w3.org/2000/svg">
  <g transform="matrix(1 0 0 1 -2575 -3688 )">
    <path d="M 10.716747658030016 9.487250635390694  C 10.716747658030016 9.487250635390694  14.114285714285714 12.918505367559135  14.114285714285714 12.918505367559135  L 13.145657999375288 14  C 13.145657999375288 14  9.824649596013941 10.460717605928949  9.824649596013941 10.460717605928949  C 8.82925048655575 11.230849804974639  7.265026016508202 11.987238554993155  5.916416913030531 11.987238554993155  C 2.6488955393007814 11.987238554993155  0 9.303782908521043  0 5.993679312747531  C 0 2.6835757169739622  2.6488955393007814 0  5.916416913030531 0  C 9.183699065633263 0  11.832594604934059 2.6833355759702044  11.832594604934059 5.993559242245624  C 11.832594604934059 7.298845668161676  11.416230233385875 8.503272872500247  10.716747658030016 9.487250635390694  Z M 10.595691213893375 5.993553949069735  C 10.595691213893375 3.375333545741796  8.500521352000533 1.2530518503652956  5.916432731729515 1.2530518503652956  C 3.3317196941425635 1.2530518503652956  1.2364249487865209 3.375333545741796  1.2364249487865209 5.993553949069735  C 1.2364249487865209 8.611774352397617  3.331594810679377 10.734306775129028  5.916432731729515 10.734306775129028  C 8.500521352000519 10.734306775129028  10.595691213893375 8.611774352397617  10.595691213893375 5.993553949069735  Z " fill-rule="nonzero" fill="#969799" stroke="none" transform="matrix(1 0 0 1 2575 3688 )" />
  </g>
</svg>