<?xml version="1.0" encoding="utf-8"?>
<svg version="1.1" xmlns:xlink="http://www.w3.org/1999/xlink" width="13px" height="13px" xmlns="http://www.w3.org/2000/svg">
  <g transform="matrix(1 0 0 1 -2886 -3700 )">
    <path d="M 10.071614583333334 10.071614583333334  C 11.060908564814817 9.082320601851851  11.555555555555555 7.8917824074074066  11.555555555555555 6.5  C 11.555555555555555 5.108217592592592  11.060908564814817 3.9176793981481484  10.071614583333334 2.928385416666666  C 9.082320601851851 1.939091435185184  7.891782407407408 1.444444444444445  6.5 1.444444444444445  C 5.108217592592593 1.444444444444445  3.9176793981481484 1.939091435185184  2.9283854166666665 2.928385416666666  C 1.9390914351851856 3.9176793981481484  1.4444444444444444 5.108217592592592  1.4444444444444444 6.5  C 1.4444444444444444 7.8917824074074066  1.9390914351851856 9.082320601851851  2.9283854166666665 10.071614583333334  C 3.9176793981481484 11.060908564814815  5.108217592592593 11.555555555555555  6.5 11.555555555555555  C 7.891782407407408 11.555555555555555  9.082320601851851 11.060908564814815  10.071614583333334 10.071614583333334  Z M 12.48654513888889 3.977864583333334  C 12.828848379629632 4.779079861111112  13 5.619791666666666  13 6.5  C 13 7.380208333333332  12.828848379629632 8.220920138888888  12.48654513888889 9.022135416666668  C 12.144241898148149 9.823350694444445  11.681568287037038 10.515480324074074  11.098524305555555 11.098524305555555  C 10.515480324074076 11.681568287037036  9.823350694444445 12.144241898148149  9.022135416666666 12.48654513888889  C 8.22092013888889 12.82884837962963  7.380208333333334 13  6.5 13  C 5.619791666666668 13  4.779079861111112 12.82884837962963  3.977864583333333 12.48654513888889  C 3.176649305555556 12.144241898148149  2.484519675925926 11.681568287037036  1.9014756944444444 11.098524305555555  C 1.318431712962963 10.515480324074074  0.855758101851852 9.823350694444445  0.513454861111111 9.022135416666668  C 0.17115162037037035 8.220920138888888  0 7.380208333333332  0 6.5  C 0 5.619791666666666  0.17115162037037035 4.779079861111112  0.513454861111111 3.977864583333334  C 0.855758101851852 3.176649305555555  1.318431712962963 2.4845196759259243  1.9014756944444444 1.901475694444445  C 2.484519675925926 1.3184317129629615  3.176649305555556 0.8557581018518516  3.977864583333333 0.5134548611111113  C 4.779079861111112 0.17115162037036802  5.619791666666668 0  6.5 0  C 7.380208333333334 0  8.22092013888889 0.17115162037036802  9.022135416666666 0.5134548611111113  C 9.823350694444445 0.8557581018518516  10.515480324074076 1.3184317129629615  11.098524305555555 1.901475694444445  C 11.681568287037038 2.4845196759259243  12.144241898148149 3.176649305555555  12.48654513888889 3.977864583333334  Z " fill-rule="nonzero" fill="#333333" stroke="none" transform="matrix(1 0 0 1 2886 3700 )" />
  </g>
</svg>