<?xml version="1.0" encoding="utf-8"?>
<svg version="1.1" xmlns:xlink="http://www.w3.org/1999/xlink" width="15px" height="8px" xmlns="http://www.w3.org/2000/svg">
  <g transform="matrix(1 0 0 1 -1071 -4011 )">
    <path d="M 14.849699398797595 6.542955326460481  C 14.9498997995992 6.6345933562428385  15 6.739977090492554  15 6.8591065292096225  C 15 6.978235967926688  14.9498997995992 7.083619702176402  14.849699398797595 7.175257731958763  L 14.098196392785573 7.86254295532646  C 13.99799599198397 7.954180985108818  13.882765531062127 8  13.75250501002004 8  C 13.622244488977957 8  13.507014028056114 7.954180985108818  13.40681362725451 7.86254295532646  L 7.5 2.4604810996563575  L 1.593186372745491 7.86254295532646  C 1.4929859719438878 7.954180985108818  1.3777555110220443 8  1.24749498997996 8  C 1.117234468937876 8  1.0020040080160324 7.954180985108818  0.9018036072144289 7.86254295532646  L 0.1503006012024048 7.175257731958763  C 0.05010020040080175 7.083619702176402  0 6.978235967926688  0 6.8591065292096225  C 0 6.739977090492554  0.05010020040080175 6.6345933562428385  0.1503006012024048 6.542955326460481  L 7.154308617234468 0.13745704467353992  C 7.254509018036074 0.04581901489117879  7.369739478957917 0  7.5 0  C 7.630260521042085 0  7.745490981963928 0.04581901489117879  7.845691382765531 0.13745704467353992  L 14.849699398797595 6.542955326460481  Z " fill-rule="nonzero" fill="#aaaaaa" stroke="none" transform="matrix(1 0 0 1 1071 4011 )" />
  </g>
</svg>