<?xml version="1.0" encoding="utf-8"?>
<svg version="1.1" xmlns:xlink="http://www.w3.org/1999/xlink" width="13px" height="13px" viewBox="1662 3919  13 13" xmlns="http://www.w3.org/2000/svg">
  <path d="M 1668.5 3919  C 1672.14 3919  1675 3921.86  1675 3925.5  C 1675 3929.14  1672.14 3932  1668.5 3932  C 1664.86 3932  1662 3929.14  1662 3925.5  C 1662 3921.86  1664.86 3919  1668.5 3919  Z " fill-rule="nonzero" fill="#f0f0f0" stroke="none" />
  <path d="M 1668.5 3919.5  C 1671.86 3919.5  1674.5 3922.14  1674.5 3925.5  C 1674.5 3928.86  1671.86 3931.5  1668.5 3931.5  C 1665.14 3931.5  1662.5 3928.86  1662.5 3925.5  C 1662.5 3922.14  1665.14 3919.5  1668.5 3919.5  Z " stroke-width="1" stroke="#797979" fill="none" />
  <path d="M 1668.5 3928.75  C 1666.68 3928.75  1665.25 3927.32  1665.25 3925.5  C 1665.25 3923.68  1666.68 3922.25  1668.5 3922.25  C 1670.32 3922.25  1671.75 3923.68  1671.75 3925.5  C 1671.75 3927.32  1670.32 3928.75  1668.5 3928.75  " fill-rule="nonzero" fill="#797979" stroke="none" />
</svg>