<?xml version="1.0" encoding="utf-8"?>
<svg version="1.1" xmlns:xlink="http://www.w3.org/1999/xlink" width="13px" height="13px" viewBox="1764 3919  13 13" xmlns="http://www.w3.org/2000/svg">
  <path d="M 1770.5 3919  C 1774.14 3919  1777 3921.86  1777 3925.5  C 1777 3929.14  1774.14 3932  1770.5 3932  C 1766.86 3932  1764 3929.14  1764 3925.5  C 1764 3921.86  1766.86 3919  1770.5 3919  Z " fill-rule="nonzero" fill="#ffffff" stroke="none" />
  <path d="M 1770.5 3919.5  C 1773.86 3919.5  1776.5 3922.14  1776.5 3925.5  C 1776.5 3928.86  1773.86 3931.5  1770.5 3931.5  C 1767.14 3931.5  1764.5 3928.86  1764.5 3925.5  C 1764.5 3922.14  1767.14 3919.5  1770.5 3919.5  Z " stroke-width="1" stroke="#797979" fill="none" />
  <path d="M 1770.5 3928.75  C 1768.68 3928.75  1767.25 3927.32  1767.25 3925.5  C 1767.25 3923.68  1768.68 3922.25  1770.5 3922.25  C 1772.32 3922.25  1773.75 3923.68  1773.75 3925.5  C 1773.75 3927.32  1772.32 3928.75  1770.5 3928.75  " fill-rule="nonzero" fill="#797979" stroke="none" />
</svg>