<?xml version="1.0" encoding="utf-8"?>
<svg version="1.1" xmlns:xlink="http://www.w3.org/1999/xlink" width="13px" height="13px" viewBox="1876 3919  13 13" xmlns="http://www.w3.org/2000/svg">
  <path d="M 1882.5 3919  C 1886.14 3919  1889 3921.86  1889 3925.5  C 1889 3929.14  1886.14 3932  1882.5 3932  C 1878.86 3932  1876 3929.14  1876 3925.5  C 1876 3921.86  1878.86 3919  1882.5 3919  Z " fill-rule="nonzero" fill="#ffffff" stroke="none" />
  <path d="M 1882.5 3919.5  C 1885.86 3919.5  1888.5 3922.14  1888.5 3925.5  C 1888.5 3928.86  1885.86 3931.5  1882.5 3931.5  C 1879.14 3931.5  1876.5 3928.86  1876.5 3925.5  C 1876.5 3922.14  1879.14 3919.5  1882.5 3919.5  Z " stroke-width="1" stroke="#797979" fill="none" />
  <path d="M 1882.5 3928.75  C 1880.68 3928.75  1879.25 3927.32  1879.25 3925.5  C 1879.25 3923.68  1880.68 3922.25  1882.5 3922.25  C 1884.32 3922.25  1885.75 3923.68  1885.75 3925.5  C 1885.75 3927.32  1884.32 3928.75  1882.5 3928.75  " fill-rule="nonzero" fill="#797979" stroke="none" />
</svg>