<?xml version="1.0" encoding="utf-8"?>
<svg version="1.1" xmlns:xlink="http://www.w3.org/1999/xlink" width="13px" height="13px" viewBox="1662 4022  13 13" xmlns="http://www.w3.org/2000/svg">
  <path d="M 1668.5 4022  C 1672.14 4022  1675 4024.86  1675 4028.5  C 1675 4032.14  1672.14 4035  1668.5 4035  C 1664.86 4035  1662 4032.14  1662 4028.5  C 1662 4024.86  1664.86 4022  1668.5 4022  Z " fill-rule="nonzero" fill="#ffffff" stroke="none" />
  <path d="M 1668.5 4022.5  C 1671.86 4022.5  1674.5 4025.14  1674.5 4028.5  C 1674.5 4031.86  1671.86 4034.5  1668.5 4034.5  C 1665.14 4034.5  1662.5 4031.86  1662.5 4028.5  C 1662.5 4025.14  1665.14 4022.5  1668.5 4022.5  Z " stroke-width="1" stroke="#797979" fill="none" />
  <path d="M 1668.5 4031.75  C 1666.68 4031.75  1665.25 4030.32  1665.25 4028.5  C 1665.25 4026.68  1666.68 4025.25  1668.5 4025.25  C 1670.32 4025.25  1671.75 4026.68  1671.75 4028.5  C 1671.75 4030.32  1670.32 4031.75  1668.5 4031.75  " fill-rule="nonzero" fill="#797979" stroke="none" />
</svg>