<?xml version="1.0" encoding="utf-8"?>
<svg version="1.1" xmlns:xlink="http://www.w3.org/1999/xlink" width="13px" height="13px" viewBox="1876 4022  13 13" xmlns="http://www.w3.org/2000/svg">
  <path d="M 1882.5 4022  C 1886.14 4022  1889 4024.86  1889 4028.5  C 1889 4032.14  1886.14 4035  1882.5 4035  C 1878.86 4035  1876 4032.14  1876 4028.5  C 1876 4024.86  1878.86 4022  1882.5 4022  Z " fill-rule="nonzero" fill="#f0f0f0" stroke="none" />
  <path d="M 1882.5 4022.5  C 1885.86 4022.5  1888.5 4025.14  1888.5 4028.5  C 1888.5 4031.86  1885.86 4034.5  1882.5 4034.5  C 1879.14 4034.5  1876.5 4031.86  1876.5 4028.5  C 1876.5 4025.14  1879.14 4022.5  1882.5 4022.5  Z " stroke-width="1" stroke="#797979" fill="none" />
  <path d="M 1882.5 4031.75  C 1880.68 4031.75  1879.25 4030.32  1879.25 4028.5  C 1879.25 4026.68  1880.68 4025.25  1882.5 4025.25  C 1884.32 4025.25  1885.75 4026.68  1885.75 4028.5  C 1885.75 4030.32  1884.32 4031.75  1882.5 4031.75  " fill-rule="nonzero" fill="#797979" stroke="none" />
</svg>