<?xml version="1.0" encoding="utf-8"?>
<svg version="1.1" xmlns:xlink="http://www.w3.org/1999/xlink" width="13px" height="13px" viewBox="1764 4022  13 13" xmlns="http://www.w3.org/2000/svg">
  <path d="M 1770.5 4022  C 1774.14 4022  1777 4024.86  1777 4028.5  C 1777 4032.14  1774.14 4035  1770.5 4035  C 1766.86 4035  1764 4032.14  1764 4028.5  C 1764 4024.86  1766.86 4022  1770.5 4022  Z " fill-rule="nonzero" fill="#ffffff" stroke="none" />
  <path d="M 1770.5 4022.5  C 1773.86 4022.5  1776.5 4025.14  1776.5 4028.5  C 1776.5 4031.86  1773.86 4034.5  1770.5 4034.5  C 1767.14 4034.5  1764.5 4031.86  1764.5 4028.5  C 1764.5 4025.14  1767.14 4022.5  1770.5 4022.5  Z " stroke-width="1" stroke="#797979" fill="none" />
  <path d="M 1770.5 4031.75  C 1768.68 4031.75  1767.25 4030.32  1767.25 4028.5  C 1767.25 4026.68  1768.68 4025.25  1770.5 4025.25  C 1772.32 4025.25  1773.75 4026.68  1773.75 4028.5  C 1773.75 4030.32  1772.32 4031.75  1770.5 4031.75  " fill-rule="nonzero" fill="#797979" stroke="none" />
</svg>