<?xml version="1.0" encoding="utf-8"?>
<svg version="1.1" xmlns:xlink="http://www.w3.org/1999/xlink" width="23px" height="22px" xmlns="http://www.w3.org/2000/svg">
  <g transform="matrix(1 0 0 1 -838 -5605 )">
    <path d="M 5.307692307692308 16.5  L 5.307692307692308 20  L 17.692307692307693 20  L 17.692307692307693 16.5  L 5.307692307692308 16.5  Z M 5.307692307692308 1.8333333333333341  L 5.307692307692308 11  L 17.692307692307693 11  L 17.692307692307693 5.5  L 15.480769230769232 5.5  C 15.112179487179489 5.5  14.798878205128206 5.366319444444443  14.540865384615383 5.098958333333334  C 14.282852564102567 4.8315972222222205  14.153846153846155 4.506944444444443  14.153846153846155 4.125  L 14.153846153846155 1.8333333333333341  L 5.307692307692308 1.8333333333333341  Z M 20.96814903846154 12.561197916666668  C 21.143229166666664 12.379774305555554  21.230769230769234 12.164930555555554  21.230769230769234 11.916666666666668  C 21.230769230769234 11.668402777777777  21.143229166666664 11.453559027777777  20.96814903846154 11.272135416666668  C 20.793068910256412 11.090711805555554  20.58573717948718 11  20.346153846153847 11  C 20.106570512820515 11  19.899238782051285 11.090711805555554  19.724158653846153 11.272135416666668  C 19.54907852564103 11.453559027777777  19.46153846153846 11.668402777777777  19.46153846153846 11.916666666666668  C 19.46153846153846 12.164930555555554  19.54907852564103 12.379774305555554  19.724158653846153 12.561197916666668  C 19.899238782051285 12.742621527777777  20.106570512820515 12.833333333333332  20.346153846153847 12.833333333333332  C 20.58573717948718 12.833333333333332  20.793068910256412 12.742621527777777  20.96814903846154 12.561197916666668  Z M 22.219050480769234 9.975911458333334  C 22.739683493589745 10.51540798611111  23 11.162326388888886  23 11.916666666666668  L 23 17.875  C 23 17.999131944444446  22.95622996794872 18.106553819444446  22.868689903846153 18.197265625  C 22.78114983974359 18.287977430555554  22.677483974358974 18.333333333333336  22.557692307692307 18.333333333333336  L 19.46153846153846 18.333333333333336  L 19.46153846153846 20.625  C 19.46153846153846 21.006944444444446  19.33253205128205 21.33159722222222  19.074519230769234 21.598958333333336  C 18.816506410256412 21.866319444444446  18.503205128205128 22  18.134615384615383 22  L 4.865384615384615 22  C 4.496794871794872 22  4.18349358974359 21.866319444444446  3.925480769230769 21.598958333333336  C 3.667467948717949 21.33159722222222  3.5384615384615388 21.006944444444446  3.5384615384615388 20.625  L 3.5384615384615388 18.333333333333336  L 0.44230769230769235 18.333333333333336  C 0.3225160256410257 18.333333333333336  0.21885016025641027 18.287977430555554  0.13131009615384615 18.197265625  C 0.04377003205128205 18.106553819444446  0 17.999131944444446  0 17.875  L 0 11.916666666666668  C 0 11.162326388888886  0.2603165064102564 10.51540798611111  0.7809495192307692 9.975911458333334  C 1.3015825320512822 9.436414930555557  1.9258814102564104 9.166666666666666  2.653846153846154 9.166666666666666  L 3.5384615384615388 9.166666666666666  L 3.5384615384615388 1.375  C 3.5384615384615388 0.9930555555555545  3.667467948717949 0.6684027777777748  3.925480769230769 0.40104166666666585  C 4.18349358974359 0.13368055555555447  4.496794871794872 0  4.865384615384615 0  L 14.153846153846155 0  C 14.5224358974359 0  14.927884615384617 0.09548611111110894  15.370192307692307 0.28645833333333415  C 15.8125 0.47743055555555447  16.16266025641026 0.7065972222222203  16.420673076923077 0.9739583333333341  L 18.521634615384617 3.151041666666666  C 18.779647435897438 3.418402777777775  19.000801282051285 3.78125  19.185096153846153 4.239583333333334  C 19.36939102564103 4.697916666666666  19.46153846153846 5.1180555555555545  19.46153846153846 5.5  L 19.46153846153846 9.166666666666666  L 20.346153846153847 9.166666666666666  C 21.07411858974359 9.166666666666666  21.69841746794872 9.436414930555557  22.219050480769234 9.975911458333334  Z " fill-rule="nonzero" fill="#7f7f7f" stroke="none" transform="matrix(1 0 0 1 838 5605 )" />
  </g>
</svg>