<?xml version="1.0" encoding="utf-8"?>
<svg version="1.1" xmlns:xlink="http://www.w3.org/1999/xlink" width="13px" height="13px" viewBox="3854 3878  13 13" xmlns="http://www.w3.org/2000/svg">
  <path d="M 3860.5 3878  C 3864.14 3878  3867 3880.86  3867 3884.5  C 3867 3888.14  3864.14 3891  3860.5 3891  C 3856.86 3891  3854 3888.14  3854 3884.5  C 3854 3880.86  3856.86 3878  3860.5 3878  Z " fill-rule="nonzero" fill="#f0f0f0" stroke="none" />
  <path d="M 3860.5 3878.5  C 3863.86 3878.5  3866.5 3881.14  3866.5 3884.5  C 3866.5 3887.86  3863.86 3890.5  3860.5 3890.5  C 3857.14 3890.5  3854.5 3887.86  3854.5 3884.5  C 3854.5 3881.14  3857.14 3878.5  3860.5 3878.5  Z " stroke-width="1" stroke="#797979" fill="none" />
  <path d="M 3860.5 3887.75  C 3858.68 3887.75  3857.25 3886.32  3857.25 3884.5  C 3857.25 3882.68  3858.68 3881.25  3860.5 3881.25  C 3862.32 3881.25  3863.75 3882.68  3863.75 3884.5  C 3863.75 3886.32  3862.32 3887.75  3860.5 3887.75  " fill-rule="nonzero" fill="#797979" stroke="none" />
</svg>