<?xml version="1.0" encoding="utf-8"?>
<svg version="1.1" xmlns:xlink="http://www.w3.org/1999/xlink" width="13px" height="13px" viewBox="3956 3878  13 13" xmlns="http://www.w3.org/2000/svg">
  <path d="M 3962.5 3878  C 3966.14 3878  3969 3880.86  3969 3884.5  C 3969 3888.14  3966.14 3891  3962.5 3891  C 3958.86 3891  3956 3888.14  3956 3884.5  C 3956 3880.86  3958.86 3878  3962.5 3878  Z " fill-rule="nonzero" fill="#ffffff" stroke="none" />
  <path d="M 3962.5 3878.5  C 3965.86 3878.5  3968.5 3881.14  3968.5 3884.5  C 3968.5 3887.86  3965.86 3890.5  3962.5 3890.5  C 3959.14 3890.5  3956.5 3887.86  3956.5 3884.5  C 3956.5 3881.14  3959.14 3878.5  3962.5 3878.5  Z " stroke-width="1" stroke="#797979" fill="none" />
  <path d="M 3962.5 3887.75  C 3960.68 3887.75  3959.25 3886.32  3959.25 3884.5  C 3959.25 3882.68  3960.68 3881.25  3962.5 3881.25  C 3964.32 3881.25  3965.75 3882.68  3965.75 3884.5  C 3965.75 3886.32  3964.32 3887.75  3962.5 3887.75  " fill-rule="nonzero" fill="#797979" stroke="none" />
</svg>