<?xml version="1.0" encoding="utf-8"?>
<svg version="1.1" xmlns:xlink="http://www.w3.org/1999/xlink" width="13px" height="13px" viewBox="2561 3959  13 13" xmlns="http://www.w3.org/2000/svg">
  <path d="M 2567.5 3959  C 2571.14 3959  2574 3961.86  2574 3965.5  C 2574 3969.14  2571.14 3972  2567.5 3972  C 2563.86 3972  2561 3969.14  2561 3965.5  C 2561 3961.86  2563.86 3959  2567.5 3959  Z " fill-rule="nonzero" fill="#f0f0f0" stroke="none" />
  <path d="M 2567.5 3959.5  C 2570.86 3959.5  2573.5 3962.14  2573.5 3965.5  C 2573.5 3968.86  2570.86 3971.5  2567.5 3971.5  C 2564.14 3971.5  2561.5 3968.86  2561.5 3965.5  C 2561.5 3962.14  2564.14 3959.5  2567.5 3959.5  Z " stroke-width="1" stroke="#797979" fill="none" />
  <path d="M 2567.5 3968.75  C 2565.68 3968.75  2564.25 3967.32  2564.25 3965.5  C 2564.25 3963.68  2565.68 3962.25  2567.5 3962.25  C 2569.32 3962.25  2570.75 3963.68  2570.75 3965.5  C 2570.75 3967.32  2569.32 3968.75  2567.5 3968.75  " fill-rule="nonzero" fill="#797979" stroke="none" />
</svg>