<?xml version="1.0" encoding="utf-8"?>
<svg version="1.1" xmlns:xlink="http://www.w3.org/1999/xlink" width="13px" height="13px" viewBox="2561 3801  13 13" xmlns="http://www.w3.org/2000/svg">
  <path d="M 2567.5 3801  C 2571.14 3801  2574 3803.86  2574 3807.5  C 2574 3811.14  2571.14 3814  2567.5 3814  C 2563.86 3814  2561 3811.14  2561 3807.5  C 2561 3803.86  2563.86 3801  2567.5 3801  Z " fill-rule="nonzero" fill="#ffffff" stroke="none" />
  <path d="M 2567.5 3801.5  C 2570.86 3801.5  2573.5 3804.14  2573.5 3807.5  C 2573.5 3810.86  2570.86 3813.5  2567.5 3813.5  C 2564.14 3813.5  2561.5 3810.86  2561.5 3807.5  C 2561.5 3804.14  2564.14 3801.5  2567.5 3801.5  Z " stroke-width="1" stroke="#797979" fill="none" />
  <path d="M 2567.5 3810.75  C 2565.68 3810.75  2564.25 3809.32  2564.25 3807.5  C 2564.25 3805.68  2565.68 3804.25  2567.5 3804.25  C 2569.32 3804.25  2570.75 3805.68  2570.75 3807.5  C 2570.75 3809.32  2569.32 3810.75  2567.5 3810.75  " fill-rule="nonzero" fill="#797979" stroke="none" />
</svg>