<?xml version="1.0" encoding="utf-8"?>
<svg version="1.1" xmlns:xlink="http://www.w3.org/1999/xlink" width="13px" height="13px" viewBox="2560 3986  13 13" xmlns="http://www.w3.org/2000/svg">
  <path d="M 2566.5 3986  C 2570.14 3986  2573 3988.86  2573 3992.5  C 2573 3996.14  2570.14 3999  2566.5 3999  C 2562.86 3999  2560 3996.14  2560 3992.5  C 2560 3988.86  2562.86 3986  2566.5 3986  Z " fill-rule="nonzero" fill="#ffffff" stroke="none" />
  <path d="M 2566.5 3986.5  C 2569.86 3986.5  2572.5 3989.14  2572.5 3992.5  C 2572.5 3995.86  2569.86 3998.5  2566.5 3998.5  C 2563.14 3998.5  2560.5 3995.86  2560.5 3992.5  C 2560.5 3989.14  2563.14 3986.5  2566.5 3986.5  Z " stroke-width="1" stroke="#797979" fill="none" />
  <path d="M 2566.5 3995.75  C 2564.68 3995.75  2563.25 3994.32  2563.25 3992.5  C 2563.25 3990.68  2564.68 3989.25  2566.5 3989.25  C 2568.32 3989.25  2569.75 3990.68  2569.75 3992.5  C 2569.75 3994.32  2568.32 3995.75  2566.5 3995.75  " fill-rule="nonzero" fill="#797979" stroke="none" />
</svg>