<?xml version="1.0" encoding="utf-8"?>
<svg version="1.1" xmlns:xlink="http://www.w3.org/1999/xlink" width="9px" height="9px" xmlns="http://www.w3.org/2000/svg">
  <g transform="matrix(1 0 0 1 -2744 -728 )">
    <path d="M 2748.5 729  C 2750.46 729  2752 730.54  2752 732.5  C 2752 734.46  2750.46 736  2748.5 736  C 2746.54 736  2745 734.46  2745 732.5  C 2745 730.54  2746.54 729  2748.5 729  Z " fill-rule="nonzero" fill="#ffffff" stroke="none" />
    <path d="M 2748.5 729  C 2750.46 729  2752 730.54  2752 732.5  C 2752 734.46  2750.46 736  2748.5 736  C 2746.54 736  2745 734.46  2745 732.5  C 2745 730.54  2746.54 729  2748.5 729  Z " stroke-width="2" stroke="#70b913" fill="none" />
  </g>
</svg>