<?xml version="1.0" encoding="utf-8"?>
<svg version="1.1" xmlns:xlink="http://www.w3.org/1999/xlink" width="9px" height="9px" xmlns="http://www.w3.org/2000/svg">
  <g transform="matrix(1 0 0 1 -2744 -817 )">
    <path d="M 2748.5 818  C 2750.46 818  2752 819.54  2752 821.5  C 2752 823.46  2750.46 825  2748.5 825  C 2746.54 825  2745 823.46  2745 821.5  C 2745 819.54  2746.54 818  2748.5 818  Z " fill-rule="nonzero" fill="#ffffff" stroke="none" />
    <path d="M 2748.5 818  C 2750.46 818  2752 819.54  2752 821.5  C 2752 823.46  2750.46 825  2748.5 825  C 2746.54 825  2745 823.46  2745 821.5  C 2745 819.54  2746.54 818  2748.5 818  Z " stroke-width="2" stroke="#4aafff" fill="none" />
  </g>
</svg>