<?xml version="1.0" encoding="utf-8"?>
<svg version="1.1" xmlns:xlink="http://www.w3.org/1999/xlink" width="7px" height="7px" xmlns="http://www.w3.org/2000/svg">
  <g transform="matrix(1 0 0 1 -2713 -1152 )">
    <path d="M 2716.5 1153  C 2717.9 1153  2719 1154.1  2719 1155.5  C 2719 1156.9  2717.9 1158  2716.5 1158  C 2715.1 1158  2714 1156.9  2714 1155.5  C 2714 1154.1  2715.1 1153  2716.5 1153  Z " fill-rule="nonzero" fill="#ffffff" stroke="none" />
    <path d="M 2716.5 1153  C 2717.9 1153  2719 1154.1  2719 1155.5  C 2719 1156.9  2717.9 1158  2716.5 1158  C 2715.1 1158  2714 1156.9  2714 1155.5  C 2714 1154.1  2715.1 1153  2716.5 1153  Z " stroke-width="2" stroke="#e53935" fill="none" />
  </g>
</svg>