<?xml version="1.0" encoding="utf-8"?>
<svg version="1.1" xmlns:xlink="http://www.w3.org/1999/xlink" width="13px" height="13px" viewBox="2429 5247  13 13" xmlns="http://www.w3.org/2000/svg">
  <path d="M 2435.5 5247  C 2439.14 5247  2442 5249.86  2442 5253.5  C 2442 5257.14  2439.14 5260  2435.5 5260  C 2431.86 5260  2429 5257.14  2429 5253.5  C 2429 5249.86  2431.86 5247  2435.5 5247  Z " fill-rule="nonzero" fill="#ffffff" stroke="none" />
  <path d="M 2435.5 5247.5  C 2438.86 5247.5  2441.5 5250.14  2441.5 5253.5  C 2441.5 5256.86  2438.86 5259.5  2435.5 5259.5  C 2432.14 5259.5  2429.5 5256.86  2429.5 5253.5  C 2429.5 5250.14  2432.14 5247.5  2435.5 5247.5  Z " stroke-width="1" stroke="#797979" fill="none" />
  <path d="M 2435.5 5256.75  C 2433.68 5256.75  2432.25 5255.32  2432.25 5253.5  C 2432.25 5251.68  2433.68 5250.25  2435.5 5250.25  C 2437.32 5250.25  2438.75 5251.68  2438.75 5253.5  C 2438.75 5255.32  2437.32 5256.75  2435.5 5256.75  " fill-rule="nonzero" fill="#797979" stroke="none" />
</svg>