<?xml version="1.0" encoding="utf-8"?>
<svg version="1.1" xmlns:xlink="http://www.w3.org/1999/xlink" width="13px" height="13px" viewBox="2317 5247  13 13" xmlns="http://www.w3.org/2000/svg">
  <path d="M 2323.5 5247  C 2327.14 5247  2330 5249.86  2330 5253.5  C 2330 5257.14  2327.14 5260  2323.5 5260  C 2319.86 5260  2317 5257.14  2317 5253.5  C 2317 5249.86  2319.86 5247  2323.5 5247  Z " fill-rule="nonzero" fill="#f0f0f0" stroke="none" />
  <path d="M 2323.5 5247.5  C 2326.86 5247.5  2329.5 5250.14  2329.5 5253.5  C 2329.5 5256.86  2326.86 5259.5  2323.5 5259.5  C 2320.14 5259.5  2317.5 5256.86  2317.5 5253.5  C 2317.5 5250.14  2320.14 5247.5  2323.5 5247.5  Z " stroke-width="1" stroke="#797979" fill="none" />
  <path d="M 2323.5 5256.75  C 2321.68 5256.75  2320.25 5255.32  2320.25 5253.5  C 2320.25 5251.68  2321.68 5250.25  2323.5 5250.25  C 2325.32 5250.25  2326.75 5251.68  2326.75 5253.5  C 2326.75 5255.32  2325.32 5256.75  2323.5 5256.75  " fill-rule="nonzero" fill="#797979" stroke="none" />
</svg>