<?xml version="1.0" encoding="utf-8"?>
<svg version="1.1" xmlns:xlink="http://www.w3.org/1999/xlink" width="13px" height="13px" viewBox="2215 5247  13 13" xmlns="http://www.w3.org/2000/svg">
  <path d="M 2221.5 5247  C 2225.14 5247  2228 5249.86  2228 5253.5  C 2228 5257.14  2225.14 5260  2221.5 5260  C 2217.86 5260  2215 5257.14  2215 5253.5  C 2215 5249.86  2217.86 5247  2221.5 5247  Z " fill-rule="nonzero" fill="#f0f0f0" stroke="none" />
  <path d="M 2221.5 5247.5  C 2224.86 5247.5  2227.5 5250.14  2227.5 5253.5  C 2227.5 5256.86  2224.86 5259.5  2221.5 5259.5  C 2218.14 5259.5  2215.5 5256.86  2215.5 5253.5  C 2215.5 5250.14  2218.14 5247.5  2221.5 5247.5  Z " stroke-width="1" stroke="#797979" fill="none" />
  <path d="M 2221.5 5256.75  C 2219.68 5256.75  2218.25 5255.32  2218.25 5253.5  C 2218.25 5251.68  2219.68 5250.25  2221.5 5250.25  C 2223.32 5250.25  2224.75 5251.68  2224.75 5253.5  C 2224.75 5255.32  2223.32 5256.75  2221.5 5256.75  " fill-rule="nonzero" fill="#797979" stroke="none" />
</svg>