<?xml version="1.0" encoding="utf-8"?>
<svg version="1.1" xmlns:xlink="http://www.w3.org/1999/xlink" width="13px" height="13px" viewBox="2317 5350  13 13" xmlns="http://www.w3.org/2000/svg">
  <path d="M 2323.5 5350  C 2327.14 5350  2330 5352.86  2330 5356.5  C 2330 5360.14  2327.14 5363  2323.5 5363  C 2319.86 5363  2317 5360.14  2317 5356.5  C 2317 5352.86  2319.86 5350  2323.5 5350  Z " fill-rule="nonzero" fill="#f0f0f0" stroke="none" />
  <path d="M 2323.5 5350.5  C 2326.86 5350.5  2329.5 5353.14  2329.5 5356.5  C 2329.5 5359.86  2326.86 5362.5  2323.5 5362.5  C 2320.14 5362.5  2317.5 5359.86  2317.5 5356.5  C 2317.5 5353.14  2320.14 5350.5  2323.5 5350.5  Z " stroke-width="1" stroke="#797979" fill="none" />
  <path d="M 2323.5 5359.75  C 2321.68 5359.75  2320.25 5358.32  2320.25 5356.5  C 2320.25 5354.68  2321.68 5353.25  2323.5 5353.25  C 2325.32 5353.25  2326.75 5354.68  2326.75 5356.5  C 2326.75 5358.32  2325.32 5359.75  2323.5 5359.75  " fill-rule="nonzero" fill="#797979" stroke="none" />
</svg>