<?xml version="1.0" encoding="utf-8"?>
<svg version="1.1" xmlns:xlink="http://www.w3.org/1999/xlink" width="13px" height="13px" viewBox="2668 5334  13 13" xmlns="http://www.w3.org/2000/svg">
  <path d="M 2674.5 5334  C 2678.14 5334  2681 5336.86  2681 5340.5  C 2681 5344.14  2678.14 5347  2674.5 5347  C 2670.86 5347  2668 5344.14  2668 5340.5  C 2668 5336.86  2670.86 5334  2674.5 5334  Z " fill-rule="nonzero" fill="#f0f0f0" stroke="none" />
  <path d="M 2674.5 5334.5  C 2677.86 5334.5  2680.5 5337.14  2680.5 5340.5  C 2680.5 5343.86  2677.86 5346.5  2674.5 5346.5  C 2671.14 5346.5  2668.5 5343.86  2668.5 5340.5  C 2668.5 5337.14  2671.14 5334.5  2674.5 5334.5  Z " stroke-width="1" stroke="#797979" fill="none" />
  <path d="M 2674.5 5343.75  C 2672.68 5343.75  2671.25 5342.32  2671.25 5340.5  C 2671.25 5338.68  2672.68 5337.25  2674.5 5337.25  C 2676.32 5337.25  2677.75 5338.68  2677.75 5340.5  C 2677.75 5342.32  2676.32 5343.75  2674.5 5343.75  " fill-rule="nonzero" fill="#797979" stroke="none" />
</svg>