<?xml version="1.0" encoding="utf-8"?>
<svg version="1.1" xmlns:xlink="http://www.w3.org/1999/xlink" width="13px" height="13px" viewBox="2668 5437  13 13" xmlns="http://www.w3.org/2000/svg">
  <path d="M 2674.5 5437  C 2678.14 5437  2681 5439.86  2681 5443.5  C 2681 5447.14  2678.14 5450  2674.5 5450  C 2670.86 5450  2668 5447.14  2668 5443.5  C 2668 5439.86  2670.86 5437  2674.5 5437  Z " fill-rule="nonzero" fill="#f0f0f0" stroke="none" />
  <path d="M 2674.5 5437.5  C 2677.86 5437.5  2680.5 5440.14  2680.5 5443.5  C 2680.5 5446.86  2677.86 5449.5  2674.5 5449.5  C 2671.14 5449.5  2668.5 5446.86  2668.5 5443.5  C 2668.5 5440.14  2671.14 5437.5  2674.5 5437.5  Z " stroke-width="1" stroke="#797979" fill="none" />
  <path d="M 2674.5 5446.75  C 2672.68 5446.75  2671.25 5445.32  2671.25 5443.5  C 2671.25 5441.68  2672.68 5440.25  2674.5 5440.25  C 2676.32 5440.25  2677.75 5441.68  2677.75 5443.5  C 2677.75 5445.32  2676.32 5446.75  2674.5 5446.75  " fill-rule="nonzero" fill="#797979" stroke="none" />
</svg>