<?xml version="1.0" encoding="utf-8"?>
<svg version="1.1" xmlns:xlink="http://www.w3.org/1999/xlink" width="13px" height="13px" viewBox="2882 5334  13 13" xmlns="http://www.w3.org/2000/svg">
  <path d="M 2888.5 5334  C 2892.14 5334  2895 5336.86  2895 5340.5  C 2895 5344.14  2892.14 5347  2888.5 5347  C 2884.86 5347  2882 5344.14  2882 5340.5  C 2882 5336.86  2884.86 5334  2888.5 5334  Z " fill-rule="nonzero" fill="#f0f0f0" stroke="none" />
  <path d="M 2888.5 5334.5  C 2891.86 5334.5  2894.5 5337.14  2894.5 5340.5  C 2894.5 5343.86  2891.86 5346.5  2888.5 5346.5  C 2885.14 5346.5  2882.5 5343.86  2882.5 5340.5  C 2882.5 5337.14  2885.14 5334.5  2888.5 5334.5  Z " stroke-width="1" stroke="#797979" fill="none" />
  <path d="M 2888.5 5343.75  C 2886.68 5343.75  2885.25 5342.32  2885.25 5340.5  C 2885.25 5338.68  2886.68 5337.25  2888.5 5337.25  C 2890.32 5337.25  2891.75 5338.68  2891.75 5340.5  C 2891.75 5342.32  2890.32 5343.75  2888.5 5343.75  " fill-rule="nonzero" fill="#797979" stroke="none" />
</svg>