<?xml version="1.0" encoding="utf-8"?>
<svg version="1.1" xmlns:xlink="http://www.w3.org/1999/xlink" width="13px" height="13px" viewBox="2882 5437  13 13" xmlns="http://www.w3.org/2000/svg">
  <path d="M 2888.5 5437  C 2892.14 5437  2895 5439.86  2895 5443.5  C 2895 5447.14  2892.14 5450  2888.5 5450  C 2884.86 5450  2882 5447.14  2882 5443.5  C 2882 5439.86  2884.86 5437  2888.5 5437  Z " fill-rule="nonzero" fill="#ffffff" stroke="none" />
  <path d="M 2888.5 5437.5  C 2891.86 5437.5  2894.5 5440.14  2894.5 5443.5  C 2894.5 5446.86  2891.86 5449.5  2888.5 5449.5  C 2885.14 5449.5  2882.5 5446.86  2882.5 5443.5  C 2882.5 5440.14  2885.14 5437.5  2888.5 5437.5  Z " stroke-width="1" stroke="#797979" fill="none" />
  <path d="M 2888.5 5446.75  C 2886.68 5446.75  2885.25 5445.32  2885.25 5443.5  C 2885.25 5441.68  2886.68 5440.25  2888.5 5440.25  C 2890.32 5440.25  2891.75 5441.68  2891.75 5443.5  C 2891.75 5445.32  2890.32 5446.75  2888.5 5446.75  " fill-rule="nonzero" fill="#797979" stroke="none" />
</svg>