<?xml version="1.0" encoding="utf-8"?>
<svg version="1.1" xmlns:xlink="http://www.w3.org/1999/xlink" width="13px" height="13px" viewBox="763 6120  13 13" xmlns="http://www.w3.org/2000/svg">
  <path d="M 769.5 6120  C 773.14 6120  776 6122.86  776 6126.5  C 776 6130.14  773.14 6133  769.5 6133  C 765.86 6133  763 6130.14  763 6126.5  C 763 6122.86  765.86 6120  769.5 6120  Z " fill-rule="nonzero" fill="#f0f0f0" stroke="none" />
  <path d="M 769.5 6120.5  C 772.86 6120.5  775.5 6123.14  775.5 6126.5  C 775.5 6129.86  772.86 6132.5  769.5 6132.5  C 766.14 6132.5  763.5 6129.86  763.5 6126.5  C 763.5 6123.14  766.14 6120.5  769.5 6120.5  Z " stroke-width="1" stroke="#797979" fill="none" />
  <path d="M 769.5 6129.75  C 767.68 6129.75  766.25 6128.32  766.25 6126.5  C 766.25 6124.68  767.68 6123.25  769.5 6123.25  C 771.32 6123.25  772.75 6124.68  772.75 6126.5  C 772.75 6128.32  771.32 6129.75  769.5 6129.75  " fill-rule="nonzero" fill="#797979" stroke="none" />
</svg>