<?xml version="1.0" encoding="utf-8"?>
<svg version="1.1" xmlns:xlink="http://www.w3.org/1999/xlink" width="13px" height="13px" viewBox="865 6120  13 13" xmlns="http://www.w3.org/2000/svg">
  <path d="M 871.5 6120  C 875.14 6120  878 6122.86  878 6126.5  C 878 6130.14  875.14 6133  871.5 6133  C 867.86 6133  865 6130.14  865 6126.5  C 865 6122.86  867.86 6120  871.5 6120  Z " fill-rule="nonzero" fill="#f2f2f2" stroke="none" />
  <path d="M 871.5 6120.5  C 874.86 6120.5  877.5 6123.14  877.5 6126.5  C 877.5 6129.86  874.86 6132.5  871.5 6132.5  C 868.14 6132.5  865.5 6129.86  865.5 6126.5  C 865.5 6123.14  868.14 6120.5  871.5 6120.5  Z " stroke-width="1" stroke="#797979" fill="none" />
  <path d="M 871.5 6129.75  C 869.68 6129.75  868.25 6128.32  868.25 6126.5  C 868.25 6124.68  869.68 6123.25  871.5 6123.25  C 873.32 6123.25  874.75 6124.68  874.75 6126.5  C 874.75 6128.32  873.32 6129.75  871.5 6129.75  " fill-rule="nonzero" fill="#797979" stroke="none" />
</svg>