<?xml version="1.0" encoding="utf-8"?>
<svg version="1.1" xmlns:xlink="http://www.w3.org/1999/xlink" width="13px" height="13px" viewBox="763 6223  13 13" xmlns="http://www.w3.org/2000/svg">
  <path d="M 769.5 6223  C 773.14 6223  776 6225.86  776 6229.5  C 776 6233.14  773.14 6236  769.5 6236  C 765.86 6236  763 6233.14  763 6229.5  C 763 6225.86  765.86 6223  769.5 6223  Z " fill-rule="nonzero" fill="#f2f2f2" stroke="none" />
  <path d="M 769.5 6223.5  C 772.86 6223.5  775.5 6226.14  775.5 6229.5  C 775.5 6232.86  772.86 6235.5  769.5 6235.5  C 766.14 6235.5  763.5 6232.86  763.5 6229.5  C 763.5 6226.14  766.14 6223.5  769.5 6223.5  Z " stroke-width="1" stroke="#797979" fill="none" />
  <path d="M 769.5 6232.75  C 767.68 6232.75  766.25 6231.32  766.25 6229.5  C 766.25 6227.68  767.68 6226.25  769.5 6226.25  C 771.32 6226.25  772.75 6227.68  772.75 6229.5  C 772.75 6231.32  771.32 6232.75  769.5 6232.75  " fill-rule="nonzero" fill="#797979" stroke="none" />
</svg>