<?xml version="1.0" encoding="utf-8"?>
<svg version="1.1" xmlns:xlink="http://www.w3.org/1999/xlink" width="13px" height="13px" viewBox="977 6223  13 13" xmlns="http://www.w3.org/2000/svg">
  <path d="M 983.5 6223  C 987.14 6223  990 6225.86  990 6229.5  C 990 6233.14  987.14 6236  983.5 6236  C 979.86 6236  977 6233.14  977 6229.5  C 977 6225.86  979.86 6223  983.5 6223  Z " fill-rule="nonzero" fill="#f2f2f2" stroke="none" />
  <path d="M 983.5 6223.5  C 986.86 6223.5  989.5 6226.14  989.5 6229.5  C 989.5 6232.86  986.86 6235.5  983.5 6235.5  C 980.14 6235.5  977.5 6232.86  977.5 6229.5  C 977.5 6226.14  980.14 6223.5  983.5 6223.5  Z " stroke-width="1" stroke="#797979" fill="none" />
  <path d="M 983.5 6232.75  C 981.68 6232.75  980.25 6231.32  980.25 6229.5  C 980.25 6227.68  981.68 6226.25  983.5 6226.25  C 985.32 6226.25  986.75 6227.68  986.75 6229.5  C 986.75 6231.32  985.32 6232.75  983.5 6232.75  " fill-rule="nonzero" fill="#797979" stroke="none" />
</svg>