<?xml version="1.0" encoding="utf-8"?>
<svg version="1.1" xmlns:xlink="http://www.w3.org/1999/xlink" width="13px" height="13px" viewBox="865 6223  13 13" xmlns="http://www.w3.org/2000/svg">
  <path d="M 871.5 6223  C 875.14 6223  878 6225.86  878 6229.5  C 878 6233.14  875.14 6236  871.5 6236  C 867.86 6236  865 6233.14  865 6229.5  C 865 6225.86  867.86 6223  871.5 6223  Z " fill-rule="nonzero" fill="#f2f2f2" stroke="none" />
  <path d="M 871.5 6223.5  C 874.86 6223.5  877.5 6226.14  877.5 6229.5  C 877.5 6232.86  874.86 6235.5  871.5 6235.5  C 868.14 6235.5  865.5 6232.86  865.5 6229.5  C 865.5 6226.14  868.14 6223.5  871.5 6223.5  Z " stroke-width="1" stroke="#797979" fill="none" />
  <path d="M 871.5 6232.75  C 869.68 6232.75  868.25 6231.32  868.25 6229.5  C 868.25 6227.68  869.68 6226.25  871.5 6226.25  C 873.32 6226.25  874.75 6227.68  874.75 6229.5  C 874.75 6231.32  873.32 6232.75  871.5 6232.75  " fill-rule="nonzero" fill="#797979" stroke="none" />
</svg>