<?xml version="1.0" encoding="utf-8"?>
<svg version="1.1" xmlns:xlink="http://www.w3.org/1999/xlink" width="11px" height="11px" xmlns="http://www.w3.org/2000/svg">
  <g transform="matrix(1 0 0 1 -319 -229 )">
    <path d="M 10.941685267857142 7.1491815476190474  C 10.980561755952381 7.201016865079364  11 7.2624007936507935  11 7.333333333333334  L 11 8.904761904761905  C 11 8.975694444444446  10.980561755952381 9.037078373015873  10.941685267857142 9.08891369047619  C 10.902808779761907 9.140749007936506  10.856770833333336 9.166666666666668  10.803571428571429 9.166666666666668  L 2.357142857142857 9.166666666666668  L 2.357142857142857 10.738095238095237  C 2.357142857142857 10.809027777777779  2.337704613095238 10.870411706349206  2.298828125 10.922247023809524  C 2.259951636904762 10.974082341269842  2.2139136904761907 11  2.1607142857142856 11  C 2.111607142857143 11  2.0625 10.972718253968255  2.013392857142857 10.918154761904763  L 0.05524553571428572 8.299107142857142  C 0.018415178571428572 8.25  0 8.189980158730158  0 8.11904761904762  C 0 8.042658730158728  0.018415178571428572 7.979910714285714  0.05524553571428572 7.930803571428571  L 2.01953125 5.3117559523809526  C 2.056361607142857 5.26264880952381  2.103422619047619 5.238095238095238  2.1607142857142856 5.238095238095238  C 2.2139136904761907 5.238095238095238  2.259951636904762 5.264012896825397  2.298828125 5.315848214285714  C 2.337704613095238 5.367683531746032  2.357142857142857 5.42906746031746  2.357142857142857 5.5  L 2.357142857142857 7.071428571428571  L 10.803571428571429 7.071428571428571  C 10.856770833333336 7.071428571428571  10.902808779761907 7.097346230158731  10.941685267857142 7.1491815476190474  Z M 10.944754464285715 2.692708333333333  C 10.981584821428571 2.7418154761904754  11 2.804563492063492  11 2.8809523809523805  C 11 2.957341269841269  10.981584821428571 3.0200892857142856  10.944754464285715 3.069196428571428  L 8.98046875 5.6882440476190474  C 8.943638392857142 5.73735119047619  8.896577380952381 5.761904761904762  8.839285714285715 5.761904761904762  C 8.78608630952381 5.761904761904762  8.740048363095239 5.735987103174603  8.701171875 5.684151785714286  C 8.662295386904763 5.6323164682539675  8.642857142857142 5.5709325396825395  8.642857142857142 5.5  L 8.642857142857142 3.928571428571428  L 0.19642857142857142 3.928571428571428  C 0.14322916666666669 3.928571428571428  0.09719122023809523 3.90265376984127  0.058314732142857144 3.8508184523809526  C 0.019438244047619048 3.7989831349206344  0 3.7375992063492065  0 3.666666666666667  L 0 2.095238095238095  C 0 2.0243055555555545  0.019438244047619048 1.9629216269841265  0.058314732142857144 1.9110863095238098  C 0.09719122023809523 1.8592509920634908  0.14322916666666669 1.833333333333333  0.19642857142857142 1.833333333333333  L 8.642857142857142 1.833333333333333  L 8.642857142857142 0.2619047619047622  C 8.642857142857142 0.18551587301587236  8.661272321428571 0.12276785714285732  8.698102678571429 0.07366071428571463  C 8.734933035714285 0.024553571428571952  8.781994047619047 0  8.839285714285715 0  C 8.888392857142858 0  8.9375 0.027281746031745935  8.986607142857142 0.0818452380952378  L 10.944754464285715 2.692708333333333  Z " fill-rule="nonzero" fill="#ffffff" stroke="none" transform="matrix(1 0 0 1 319 229 )" />
  </g>
</svg>