<?xml version="1.0" encoding="utf-8"?>
<svg version="1.1" xmlns:xlink="http://www.w3.org/1999/xlink" width="20px" height="19px" xmlns="http://www.w3.org/2000/svg">
  <g transform="matrix(1 0 0 1 -1337 -934 )">
    <path d="M 16.670673076923077 11.875  C 16.838942307692307 11.94921875  16.923076923076923 12.068793402777775  16.923076923076923 12.233723958333332  L 16.923076923076923 15.4375  C 16.923076923076923 16.418836805555554  16.58453525641026 17.257921006944446  15.907451923076923 17.954752604166664  C 15.230368589743591 18.65158420138889  14.415064102564104 19  13.461538461538463 19  L 3.4615384615384617 19  C 2.5080128205128203 19  1.6927083333333335 18.65158420138889  1.015625 17.954752604166664  C 0.33854166666666663 17.257921006944446  0 16.418836805555554  0 15.4375  L 0 5.145833333333334  C 0 4.164496527777776  0.33854166666666663 3.325412326388888  1.015625 2.628580729166666  C 1.6927083333333335 1.931749131944442  2.5080128205128203 1.583333333333334  3.4615384615384617 1.583333333333334  L 6.5264423076923075 1.583333333333334  C 6.630608974358976 1.583333333333334  6.720753205128206 1.622504340277776  6.796875 1.700846354166666  C 6.872996794871796 1.779188368055554  6.9110576923076925 1.871961805555554  6.9110576923076925 1.979166666666666  C 6.9110576923076925 2.201822916666666  6.806891025641026 2.33376736111111  6.5985576923076925 2.375  C 5.981570512820513 2.589409722222222  5.448717948717949 2.836805555555554  5 3.1171875  C 4.919871794871796 3.15017361111111  4.855769230769231 3.166666666666666  4.8076923076923075 3.166666666666666  L 3.4615384615384617 3.166666666666666  C 2.932692307692308 3.166666666666666  2.479967948717949 3.360460069444442  2.1033653846153846 3.748046875  C 1.7267628205128207 4.135633680555554  1.5384615384615385 4.6015625  1.5384615384615385 5.145833333333334  L 1.5384615384615385 15.4375  C 1.5384615384615385 15.981770833333334  1.7267628205128207 16.447699652777775  2.1033653846153846 16.835286458333336  C 2.479967948717949 17.22287326388889  2.932692307692308 17.416666666666664  3.4615384615384617 17.416666666666664  L 13.461538461538463 17.416666666666664  C 13.990384615384615 17.416666666666664  14.443108974358976 17.22287326388889  14.819711538461537 16.835286458333336  C 15.196314102564104 16.447699652777775  15.384615384615385 15.981770833333334  15.384615384615385 15.4375  L 15.384615384615385 12.790364583333332  C 15.384615384615385 12.633680555555555  15.456730769230768 12.514105902777775  15.600961538461537 12.431640625  C 15.825320512820513 12.324435763888888  16.041666666666668 12.171875  16.25 11.973958333333332  C 16.37820512820513 11.842013888888888  16.51842948717949 11.809027777777775  16.670673076923077 11.875  Z M 20 5.541666666666666  C 20 5.7560763888888875  19.923878205128208 5.9416232638888875  19.771634615384613 6.098307291666666  L 15.15625 10.848307291666668  C 15.012019230769232 11.004991319444445  14.831730769230768 11.083333333333332  14.615384615384615 11.083333333333332  C 14.519230769230768 11.083333333333332  14.419070512820513 11.062717013888888  14.314903846153847 11.021484375  C 14.002403846153847 10.881293402777775  13.846153846153847 10.638020833333332  13.846153846153847 10.291666666666668  L 13.846153846153847 7.916666666666666  L 11.923076923076923 7.916666666666666  C 9.334935897435898 7.916666666666666  7.580128205128206 8.45681423611111  6.658653846153846 9.537109375  C 5.705128205128206 10.666883680555555  5.408653846153847 12.6171875  5.769230769230768 15.388020833333334  C 5.793269230769232 15.577690972222221  5.713141025641026 15.717881944444441  5.528846153846154 15.80859375  C 5.46474358974359 15.825086805555554  5.416666666666668 15.833333333333334  5.384615384615384 15.833333333333334  C 5.256410256410256 15.833333333333334  5.15224358974359 15.779730902777775  5.072115384615384 15.672526041666666  C 4.99198717948718 15.557074652777775  4.907852564102565 15.429253472222221  4.819711538461538 15.2890625  C 4.731570512820514 15.148871527777775  4.573317307692308 14.866427951388888  4.344951923076923 14.441731770833334  C 4.116586538461538 14.017035590277775  3.918269230769231 13.606770833333332  3.75 13.2109375  C 3.581730769230769 12.815104166666668  3.4274839743589745 12.345052083333332  3.287259615384616 11.80078125  C 3.1470352564102564 11.256510416666668  3.076923076923077 10.75347222222222  3.076923076923077 10.291666666666668  C 3.076923076923077 9.887586805555555  3.090945512820513 9.512369791666668  3.118990384615384 9.166015625  C 3.1470352564102564 8.819661458333332  3.203125 8.448567708333332  3.287259615384616 8.052734375  C 3.371394230769231 7.656901041666666  3.4835737179487185 7.294053819444442  3.623798076923077 6.964192708333334  C 3.764022435897436 6.634331597222222  3.9523237179487185 6.298285590277776  4.188701923076923 5.9560546875  C 4.425080128205129 5.613823784722222  4.699519230769231 5.308702256944442  5.012019230769232 5.040690104166666  C 5.324519230769232 4.7726779513888875  5.703125000000001 4.519097222222222  6.147836538461538 4.279947916666666  C 6.592548076923077 4.04079861111111  7.091346153846154 3.8408203125  7.644230769230768 3.680013020833334  C 8.197115384615385 3.519205729166666  8.836137820512821 3.393446180555554  9.561298076923077 3.302734375  C 10.286458333333336 3.212022569444442  11.073717948717949 3.166666666666666  11.923076923076923 3.166666666666666  L 13.846153846153847 3.166666666666666  L 13.846153846153847 0.791666666666666  C 13.846153846153847 0.4453125  14.002403846153847 0.20203993055555391  14.314903846153847 0.061848958333334036  C 14.419070512820513 0.020616319444446085  14.519230769230768 0  14.615384615384615 0  C 14.823717948717952 0  15.004006410256412 0.07834201388889006  15.15625 0.23502604166666596  L 19.771634615384613 4.985026041666666  C 19.923878205128208 5.141710069444442  20 5.327256944444442  20 5.541666666666666  Z " fill-rule="nonzero" fill="#ffffff" stroke="none" transform="matrix(1 0 0 1 1337 934 )" />
  </g>
</svg>