<?xml version="1.0" encoding="utf-8"?>
<svg version="1.1" xmlns:xlink="http://www.w3.org/1999/xlink" width="15px" height="11px" xmlns="http://www.w3.org/2000/svg">
  <g transform="matrix(1 0 0 1 -561 -184 )">
    <path d="M 1.6529246309785632 4.670278072357178  C 3.2304316807718507 3.1385850906372075  5.323823552625614 2.2844715118408203  7.500410029001506 2.2844772338867188  C 9.676783327614386 2.284574508666992  11.769935199557711 3.138685703277588  13.347240733391214 4.670278072357178  C 13.466015732798793 4.788522720336914  13.655865224633386 4.7870306968688965  13.772845239288074 4.666934013366699  C 13.772845239288074 4.666934013366699  14.908229072147753 3.4966044425964355  14.908229072147753 3.4966044425964355  C 14.96746170310467 3.4356915950775146  15.000486063958553 3.3531816005706783  14.999994402334451 3.2673325538635254  C 14.999502740710348 3.181483507156372  14.965535173211364 3.099373817443847  14.905609364670559 3.0391726493835454  C 10.76568601163904 -1.0130577087402344  4.234478871681354 -1.0130577087402344  0.09455551864983561 3.0391726493835454  C 0.034585876306145284 3.0993289947509766  0.0005598343061783887 3.1814138889312744  0 3.2672629356384277  C -0.0005461413880566292 3.353111982345581  0.032419525073763236 3.4356472492218018  0.09160902558030531 3.4966044425964355  C 0.09160902558030531 3.4966044425964355  1.2273196586095734 4.666934013366699  1.2273196586095734 4.666934013366699  C 1.3442252709596658 4.787212371826172  1.5342212350428046 4.788705348968506  1.6529246309785632 4.670278072357178  Z M 4.267448903109448 7.365714073181152  C 5.153236560891313 6.546481132507324  6.305424119258638 6.092566967010498  7.500410029001506 6.0920610427856445  C 8.696186142531118 6.091986179351807  9.849289385687925 6.5459394454956055  10.73566293246398 7.365714073181152  C 10.855549068483146 7.482059001922607  11.044401242905659 7.479536533355713  11.161268371305097 7.360029697418213  C 11.161268371305097 7.360029697418213  12.29534141748192 6.189700126647949  12.29534141748192 6.189700126647949  C 12.355063844174426 6.128313064575195  12.388202024227816 6.0450358390808105  12.387340916677443 5.958500385284424  C 12.38647887618281 5.871964931488037  12.351690317736557 5.789393424987793  12.290757862341088 5.729259014129639  C 9.591571930841962 3.164850473403931  5.411539438259335 3.164850473403931  2.712353739996272 5.729259014129639  C 2.6513830338862148 5.789392471313477  2.616596574564544 5.872005462646484  2.615796574863086 5.958569049835205  C 2.6149963419255635 6.045132637023927  2.6482495073587846 6.128401756286621  2.7080976482900905 6.189700126647949  C 2.7080976482900905 6.189700126647949  3.841843930740457 7.360029697418213  3.841843930740457 7.360029697418213  C 3.9587105926677673 7.479536533355713  4.147562767090279 7.482059001922607  4.267448903109448 7.365714073181152  Z M 9.670667878001492 8.426701545715332  C 9.733699457978044 8.484917640686035  9.770418278094636 8.567119598388672  9.772152621470742 8.653898239135742  C 9.773887897791106 8.740675926208496  9.740486627456885 8.824339866638184  9.679834988283153 8.885136604309082  C 9.679834988283153 8.885136604309082  7.7181233005254155 10.90713119506836  7.7181233005254155 10.90713119506836  C 7.660617549390535 10.966556549072266  7.582215246287022 11  7.500410029001506 11  C 7.4186043452438595 11  7.340202508612475 10.966556549072266  7.282696291005466 10.90713119506836  C 7.282696291005466 10.90713119506836  5.320657606285208 8.885136604309082  5.320657606285208 8.885136604309082  C 5.260047016658839 8.824295043945312  5.226703588868632 8.740604400634766  5.228500905982169 8.653825759887695  C 5.230298223095707 8.567047119140625  5.267076285172698 8.484870910644531  5.330151713529389 8.426701545715332  C 6.58297410314669 7.344430446624756  8.41784595485632 7.344430446624756  9.670667878001492 8.426701545715332  Z " fill-rule="nonzero" fill="#ffffff" stroke="none" transform="matrix(1 0 0 1 561 184 )" />
  </g>
</svg>