<?xml version="1.0" encoding="utf-8"?>
<svg version="1.1" xmlns:xlink="http://www.w3.org/1999/xlink" width="17px" height="11px" xmlns="http://www.w3.org/2000/svg">
  <g transform="matrix(1 0 0 1 -539 -184 )">
    <path d="M 17 1.031249969266356  C 17 0.4617063097892311  16.552284240722656 0  16 0  C 16 0  15 0  15 0  C 14.447714805603027 0  14 0.4617063097892311  14 1.031249969266356  C 14 1.031249969266356  14 9.968750030733643  14 9.968750030733643  C 14 10.538294120481787  14.447714805603027 11  15 11  C 15 11  16 11  16 11  C 16.552284240722656 11  17 10.538294120481787  17 9.968750030733643  C 17 9.968750030733643  17 1.031249969266356  17 1.031249969266356  Z M 9.333333015441895 3.4374998155981356  C 9.333333015441895 2.867956217588299  9.781047821044922 2.4062498463317796  10.333333015441895 2.4062498463317796  C 10.333333015441895 2.4062498463317796  11.333333015441895 2.4062498463317796  11.333333015441895 2.4062498463317796  C 11.885618209838867 2.4062498463317796  12.333333015441895 2.867956217588299  12.333333015441895 3.4374998155981356  C 12.333333015441895 3.4374998155981356  12.333333015441895 9.968750030733643  12.333333015441895 9.968750030733643  C 12.333333015441895 10.538293137005176  11.885618209838867 10.99999901652339  11.333333015441895 10.99999901652339  C 11.333333015441895 10.99999901652339  10.333333015441895 10.99999901652339  10.333333015441895 10.99999901652339  C 9.781047821044922 10.99999901652339  9.333333015441895 10.538293137005176  9.333333015441895 9.968750030733643  C 9.333333015441895 9.968750030733643  9.333333015441895 3.4374998155981356  9.333333015441895 3.4374998155981356  Z M 7.666666507720947 5.843749661929915  C 7.666666507720947 5.274206063920079  7.218951225280762 4.812499692663559  6.666666507720947 4.812499692663559  C 6.666666507720947 4.812499692663559  5.666666507720947 4.812499692663559  5.666666507720947 4.812499692663559  C 5.114381790161133 4.812499692663559  4.666666507720947 5.274206063920079  4.666666507720947 5.843749661929915  C 4.666666507720947 5.843749661929915  4.666666507720947 9.968749047257035  4.666666507720947 9.968749047257035  C 4.666666507720947 10.538293137005176  5.114381790161133 10.99999901652339  5.666666507720947 10.99999901652339  C 5.666666507720947 10.99999901652339  6.666666507720947 10.99999901652339  6.666666507720947 10.99999901652339  C 7.218951225280762 10.99999901652339  7.666666507720947 10.538293137005176  7.666666507720947 9.968749047257035  C 7.666666507720947 9.968749047257035  7.666666507720947 5.843749661929915  7.666666507720947 5.843749661929915  Z M 3 7.906249600462628  C 3 7.33670600245279  2.5522847175598145 6.874999631196271  2 6.874999631196271  C 2 6.874999631196271  1 6.874999631196271  1 6.874999631196271  C 0.44771522283554077 6.874999631196271  0 7.33670600245279  0 7.906249600462628  C 0 7.906249600462628  0 9.968749047257035  0 9.968749047257035  C 0 10.538293137005176  0.44771522283554077 10.99999901652339  1 10.99999901652339  C 1 10.99999901652339  2 10.99999901652339  2 10.99999901652339  C 2.5522847175598145 10.99999901652339  3 10.538293137005176  3 9.968749047257035  C 3 9.968749047257035  3 7.906249600462628  3 7.906249600462628  Z " fill-rule="nonzero" fill="#ffffff" stroke="none" transform="matrix(1 0 0 1 539 184 )" />
  </g>
</svg>