<?xml version="1.0" encoding="utf-8"?>
<svg version="1.1" xmlns:xlink="http://www.w3.org/1999/xlink" width="16px" height="16px" xmlns="http://www.w3.org/2000/svg">
  <g transform="matrix(1 0 0 1 -579 -226 )">
    <path d="M 8 0  C 3.5888020833333334 0  0 3.588784176847004  0 8  C 0 12.411215314533484  3.5888020833333334 16  8 16  C 12.411197916666667 16  16 12.411215314533484  16 8  C 16 3.588784176847004  12.411197916666667 0  8 0  Z M 8 14.933561194874386  C 4.176822916666667 14.933561194874386  1.06640625 11.823180970000985  1.06640625 8  C 1.06640625 4.1768187756892585  4.176822916666667 1.0664390594353688  8 1.0664390594353688  C 11.82265625 1.0664390594353688  14.9328125 4.1768187756892585  14.9328125 8  C 14.9328125 11.823180970000985  11.82265625 14.933561194874386  8 14.933561194874386  Z " fill-rule="nonzero" fill="#ffffff" stroke="none" transform="matrix(1 0 0 1 579 226 )" />
  </g>
</svg>