<?xml version="1.0" encoding="utf-8"?>
<svg version="1.1" xmlns:xlink="http://www.w3.org/1999/xlink" width="20px" height="16px" xmlns="http://www.w3.org/2000/svg">
  <g transform="matrix(1 0 0 1 -341 -17 )">
    <path d="M 11.572026173753898 6.953935014838464  C 11.572026173753898 6.953935014838464  16.8214826779747 1.1654250320217443  16.8214826779747 1.1654250320217443  C 17.01400374627076 0.9526559983094671  17.054675496309244 0.6577629815542991  16.924501541844677 0.4081879301620006  C 16.794205815673422 0.1586425371239102  16.517662269752975 0  16.213233002997754 0  C 16.213233002997754 0  0.7870714262689944 0  0.7870714262689944 0  C 0.47959786684623396 0  0.20037534337831175 0.16187529774202858  0.07190619280760302 0.41557286038141683  C -0.056502071909790175 0.6686475975806161  -0.010411480923039562 0.9665064497652338  0.19045094928208073 1.1777925657627861  C 0.19045094928208073 1.1777925657627861  5.670969266970133 6.95334184775254  5.670969266970133 6.95334184775254  C 5.670969266970133 6.95334184775254  5.670969266970133 13.466702009538892  5.670969266970133 13.466702009538892  C 5.670969266970133 13.737749709440834  5.8401101675793825 13.985219017678219  6.107764378910588 14.105898861304581  C 6.107764378910588 14.105898861304581  10.407036255734909 15.925824455908241  10.407036255734909 15.925824455908241  C 10.51711787859358 15.975591174415285  10.637550096521977 16  10.756642825676636 16  C 10.89680206009075 16  11.037143952064923 15.966130159395107  11.161655522167848 15.898449794893963  C 11.391316961007988 15.773677098374947  11.535251118329882 15.551180124453879  11.543409822678882 15.308100252652082  C 11.543409822678882 15.308100252652082  11.572026173753898 6.953935014838464  11.572026173753898 6.953935014838464  Z M 14 9  L 14 8  L 20 8  L 20 9  L 14 9  Z M 14 12  L 14 11  L 20 11  L 20 12  L 14 12  Z M 14 14  L 20 14  L 20 15  L 14 15  L 14 14  Z M 7.244381489267994 13.02437731358333  L 7.244381489267994 7.402428648487387  L 9.98284451543816 7.402428648487387  L 9.96183889603202 14.154153003742522  L 7.244381489267994 13.02437731358333  Z M 6.818972031904195 5.976277023858302  L 2.501129969807778 1.4258846994403598  L 14.547639598726391 1.4258846994403598  L 10.421648860539165 5.976277023858302  L 6.818972031904195 5.976277023858302  Z " fill-rule="nonzero" fill="#212121" stroke="none" transform="matrix(1 0 0 1 341 17 )" />
  </g>
</svg>