<?xml version="1.0" encoding="utf-8"?>
<svg version="1.1" xmlns:xlink="http://www.w3.org/1999/xlink" width="12px" height="12px" xmlns="http://www.w3.org/2000/svg">
  <g transform="matrix(1 0 0 1 -600 -654 )">
    <path d="M 8.9453125 7.30078125  C 8.971354166666668 7.32421875  8.984375 7.354166666666665  8.984375 7.390625000000001  L 8.984375 8.2421875  C 8.984375 8.502604166666664  8.889322916666668 8.734375  8.69921875 8.9375  C 8.509114583333334 9.140625  8.264322916666668 9.298177083333332  7.96484375 9.41015625  C 7.665364583333334 9.522135416666666  7.358072916666667 9.606770833333334  7.04296875 9.6640625  C 6.727864583333334 9.721354166666666  6.421875 9.75  6.125 9.75  C 5.057291666666667 9.75  4.165364583333334 9.388020833333334  3.44921875 8.6640625  C 2.733072916666667 7.940104166666665  2.375 7.039062500000001  2.375 5.9609375  C 2.375 4.903645833333334  2.729166666666667 4.020833333333333  3.4375 3.3124999999999996  C 4.145833333333334 2.604166666666666  5.028645833333334 2.25  6.0859375 2.25  C 6.263020833333334 2.25  6.459635416666668 2.26171875  6.67578125 2.28515625  C 6.891927083333334 2.30859375  7.134114583333334 2.35546875  7.40234375 2.42578125  C 7.670572916666668 2.49609375  7.911458333333334 2.5846354166666665  8.125 2.6914062499999996  C 8.338541666666668 2.7981770833333326  8.518229166666668 2.9453125000000004  8.6640625 3.1328125000000004  C 8.809895833333334 3.3203125000000004  8.8828125 3.5312500000000004  8.8828125 3.7656250000000004  L 8.8828125 4.6171875  C 8.8828125 4.700520833333332  8.841145833333334 4.7421875  8.7578125 4.7421875  L 7.8359375 4.7421875  C 7.752604166666668 4.7421875  7.710937500000002 4.700520833333332  7.7109375 4.6171875  L 7.7109375 4.0703125  C 7.710937500000002 3.846354166666666  7.540364583333334 3.670572916666666  7.19921875 3.5429687500000004  C 6.858072916666668 3.415364583333332  6.5 3.3515625  6.125 3.3515625  C 5.395833333333334 3.3515625  4.80078125 3.5898437500000004  4.33984375 4.06640625  C 3.87890625 4.54296875  3.6484375 5.161458333333334  3.6484375 5.921875  C 3.6484375 6.708333333333332  3.88671875 7.358072916666667  4.36328125 7.871093750000001  C 4.83984375 8.384114583333332  5.447916666666667 8.640625  6.1875 8.640625  C 6.541666666666668 8.640625  6.901041666666667 8.578125  7.265625 8.453125  C 7.630208333333334 8.328125  7.8125 8.15625  7.8125 7.937499999999999  L 7.8125 7.390625000000001  C 7.8125 7.354166666666665  7.82421875 7.32421875  7.84765625 7.30078125  C 7.87109375 7.27734375  7.8984375 7.265625  7.9296875 7.265625  L 8.859375 7.265625  C 8.890625 7.265625  8.919270833333334 7.27734375  8.9453125 7.30078125  Z M 7.94140625 1.3984375000000004  C 7.32421875 1.1328124999999996  6.677083333333334 1.0000000000000004  6 1.0000000000000004  C 5.322916666666667 1.0000000000000004  4.67578125 1.1328124999999996  4.05859375 1.3984375000000004  C 3.44140625 1.6640625  2.91015625 2.0195312500000004  2.46484375 2.4648437500000004  C 2.01953125 2.9101562500000004  1.6640625 3.4414062499999996  1.3984375 4.05859375  C 1.1328125 4.67578125  1 5.322916666666666  1 6  C 1 6.677083333333334  1.1328125 7.32421875  1.3984375 7.941406250000001  C 1.6640625 8.55859375  2.01953125 9.08984375  2.46484375 9.53515625  C 2.91015625 9.98046875  3.44140625 10.3359375  4.05859375 10.6015625  C 4.67578125 10.8671875  5.322916666666667 11  6 11  C 6.677083333333334 11  7.32421875 10.8671875  7.94140625 10.6015625  C 8.55859375 10.3359375  9.08984375 9.98046875  9.53515625 9.53515625  C 9.98046875 9.08984375  10.3359375 8.55859375  10.6015625 7.941406250000001  C 10.8671875 7.32421875  11 6.677083333333334  11 6  C 11 5.322916666666666  10.8671875 4.67578125  10.6015625 4.05859375  C 10.3359375 3.4414062499999996  9.98046875 2.9101562500000004  9.53515625 2.4648437500000004  C 9.08984375 2.0195312500000004  8.55859375 1.6640625  7.94140625 1.3984375000000004  Z M 11.1953125 2.98828125  C 11.731770833333332 3.907552083333332  12 4.911458333333332  12 6  C 12 7.088541666666667  11.731770833333332 8.092447916666664  11.1953125 9.01171875  C 10.658854166666668 9.930989583333334  9.930989583333334 10.658854166666666  9.01171875 11.1953125  C 8.092447916666668 11.731770833333334  7.088541666666667 12  6 12  C 4.911458333333334 12  3.9075520833333335 11.731770833333334  2.98828125 11.1953125  C 2.069010416666667 10.658854166666666  1.3411458333333335 9.930989583333334  0.8046875 9.01171875  C 0.26822916666666663 8.092447916666664  0 7.088541666666667  0 6  C 0 4.911458333333332  0.26822916666666663 3.907552083333332  0.8046875 2.98828125  C 1.3411458333333335 2.0690104166666665  2.069010416666667 1.3411458333333321  2.98828125 0.8046874999999996  C 3.9075520833333335 0.26822916666666563  4.911458333333334 0  6 0  C 7.088541666666667 0  8.092447916666668 0.26822916666666563  9.01171875 0.8046874999999996  C 9.930989583333334 1.3411458333333321  10.658854166666668 2.0690104166666665  11.1953125 2.98828125  Z " fill-rule="nonzero" fill="#ffffff" stroke="none" transform="matrix(1 0 0 1 600 654 )" />
  </g>
</svg>