<?xml version="1.0" encoding="utf-8"?>
<svg version="1.1" xmlns:xlink="http://www.w3.org/1999/xlink" width="13px" height="13px" viewBox="663 498  13 13" xmlns="http://www.w3.org/2000/svg">
  <path d="M 669.5 498  C 673.14 498  676 500.86  676 504.5  C 676 508.14  673.14 511  669.5 511  C 665.86 511  663 508.14  663 504.5  C 663 500.86  665.86 498  669.5 498  Z " fill-rule="nonzero" fill="#f0f0f0" stroke="none" />
  <path d="M 669.5 498.5  C 672.86 498.5  675.5 501.14  675.5 504.5  C 675.5 507.86  672.86 510.5  669.5 510.5  C 666.14 510.5  663.5 507.86  663.5 504.5  C 663.5 501.14  666.14 498.5  669.5 498.5  Z " stroke-width="1" stroke="#797979" fill="none" />
  <path d="M 669.5 507.75  C 667.68 507.75  666.25 506.32  666.25 504.5  C 666.25 502.68  667.68 501.25  669.5 501.25  C 671.32 501.25  672.75 502.68  672.75 504.5  C 672.75 506.32  671.32 507.75  669.5 507.75  " fill-rule="nonzero" fill="#797979" stroke="none" />
</svg>