<?xml version="1.0" encoding="utf-8"?>
<svg version="1.1" xmlns:xlink="http://www.w3.org/1999/xlink" width="13px" height="13px" viewBox="482 595  13 13" xmlns="http://www.w3.org/2000/svg">
  <path d="M 488.5 595  C 492.14 595  495 597.86  495 601.5  C 495 605.14  492.14 608  488.5 608  C 484.86 608  482 605.14  482 601.5  C 482 597.86  484.86 595  488.5 595  Z " fill-rule="nonzero" fill="#ffffff" stroke="none" />
  <path d="M 488.5 595.5  C 491.86 595.5  494.5 598.14  494.5 601.5  C 494.5 604.86  491.86 607.5  488.5 607.5  C 485.14 607.5  482.5 604.86  482.5 601.5  C 482.5 598.14  485.14 595.5  488.5 595.5  Z " stroke-width="1" stroke="#797979" fill="none" />
  <path d="M 488.5 604.75  C 486.68 604.75  485.25 603.32  485.25 601.5  C 485.25 599.68  486.68 598.25  488.5 598.25  C 490.32 598.25  491.75 599.68  491.75 601.5  C 491.75 603.32  490.32 604.75  488.5 604.75  " fill-rule="nonzero" fill="#797979" stroke="none" />
</svg>