<?xml version="1.0" encoding="utf-8"?>
<svg version="1.1" xmlns:xlink="http://www.w3.org/1999/xlink" width="13px" height="13px" viewBox="668 595  13 13" xmlns="http://www.w3.org/2000/svg">
  <path d="M 674.5 595  C 678.14 595  681 597.86  681 601.5  C 681 605.14  678.14 608  674.5 608  C 670.86 608  668 605.14  668 601.5  C 668 597.86  670.86 595  674.5 595  Z " fill-rule="nonzero" fill="#ffffff" stroke="none" />
  <path d="M 674.5 595.5  C 677.86 595.5  680.5 598.14  680.5 601.5  C 680.5 604.86  677.86 607.5  674.5 607.5  C 671.14 607.5  668.5 604.86  668.5 601.5  C 668.5 598.14  671.14 595.5  674.5 595.5  Z " stroke-width="1" stroke="#797979" fill="none" />
  <path d="M 674.5 604.75  C 672.68 604.75  671.25 603.32  671.25 601.5  C 671.25 599.68  672.68 598.25  674.5 598.25  C 676.32 598.25  677.75 599.68  677.75 601.5  C 677.75 603.32  676.32 604.75  674.5 604.75  " fill-rule="nonzero" fill="#797979" stroke="none" />
</svg>