<?xml version="1.0" encoding="utf-8"?>
<svg version="1.1" xmlns:xlink="http://www.w3.org/1999/xlink" width="13px" height="13px" viewBox="296 595  13 13" xmlns="http://www.w3.org/2000/svg">
  <path d="M 302.5 595  C 306.14 595  309 597.86  309 601.5  C 309 605.14  306.14 608  302.5 608  C 298.86 608  296 605.14  296 601.5  C 296 597.86  298.86 595  302.5 595  Z " fill-rule="nonzero" fill="#ffffff" stroke="none" />
  <path d="M 302.5 595.5  C 305.86 595.5  308.5 598.14  308.5 601.5  C 308.5 604.86  305.86 607.5  302.5 607.5  C 299.14 607.5  296.5 604.86  296.5 601.5  C 296.5 598.14  299.14 595.5  302.5 595.5  Z " stroke-width="1" stroke="#797979" fill="none" />
  <path d="M 302.5 604.75  C 300.68 604.75  299.25 603.32  299.25 601.5  C 299.25 599.68  300.68 598.25  302.5 598.25  C 304.32 598.25  305.75 599.68  305.75 601.5  C 305.75 603.32  304.32 604.75  302.5 604.75  " fill-rule="nonzero" fill="#797979" stroke="none" />
</svg>