<?xml version="1.0" encoding="utf-8"?>
<svg version="1.1" xmlns:xlink="http://www.w3.org/1999/xlink" width="693px" height="225px" xmlns="http://www.w3.org/2000/svg">
  <g transform="matrix(1 0 0 1 -282 -189 )">
    <path d="M 283 197  A 7 7 0 0 1 290 190 L 967 190  A 7 7 0 0 1 974 197 L 974 406  A 7 7 0 0 1 967 413 L 290 413  A 7 7 0 0 1 283 406 L 283 197  Z " fill-rule="nonzero" fill="#ffffff" stroke="none" />
    <path d="M 282.5 197  A 7.5 7.5 0 0 1 290 189.5 L 967 189.5  A 7.5 7.5 0 0 1 974.5 197 L 974.5 406  A 7.5 7.5 0 0 1 967 413.5 L 290 413.5  A 7.5 7.5 0 0 1 282.5 406 L 282.5 197  Z " stroke-width="1" stroke-dasharray="9,4" stroke="#aaaaaa" fill="none" stroke-dashoffset="0.5" />
  </g>
</svg>