<?xml version="1.0" encoding="utf-8"?>
<svg version="1.1" xmlns:xlink="http://www.w3.org/1999/xlink" width="13px" height="13px" viewBox="291 498  13 13" xmlns="http://www.w3.org/2000/svg">
  <path d="M 297.5 498  C 301.14 498  304 500.86  304 504.5  C 304 508.14  301.14 511  297.5 511  C 293.86 511  291 508.14  291 504.5  C 291 500.86  293.86 498  297.5 498  Z " fill-rule="nonzero" fill="#f0f0f0" stroke="none" />
  <path d="M 297.5 498.5  C 300.86 498.5  303.5 501.14  303.5 504.5  C 303.5 507.86  300.86 510.5  297.5 510.5  C 294.14 510.5  291.5 507.86  291.5 504.5  C 291.5 501.14  294.14 498.5  297.5 498.5  Z " stroke-width="1" stroke="#797979" fill="none" />
  <path d="M 297.5 507.75  C 295.68 507.75  294.25 506.32  294.25 504.5  C 294.25 502.68  295.68 501.25  297.5 501.25  C 299.32 501.25  300.75 502.68  300.75 504.5  C 300.75 506.32  299.32 507.75  297.5 507.75  " fill-rule="nonzero" fill="#797979" stroke="none" />
</svg>