<?xml version="1.0" encoding="utf-8"?>
<svg version="1.1" xmlns:xlink="http://www.w3.org/1999/xlink" width="13px" height="13px" viewBox="477 498  13 13" xmlns="http://www.w3.org/2000/svg">
  <path d="M 483.5 498  C 487.14 498  490 500.86  490 504.5  C 490 508.14  487.14 511  483.5 511  C 479.86 511  477 508.14  477 504.5  C 477 500.86  479.86 498  483.5 498  Z " fill-rule="nonzero" fill="#f0f0f0" stroke="none" />
  <path d="M 483.5 498.5  C 486.86 498.5  489.5 501.14  489.5 504.5  C 489.5 507.86  486.86 510.5  483.5 510.5  C 480.14 510.5  477.5 507.86  477.5 504.5  C 477.5 501.14  480.14 498.5  483.5 498.5  Z " stroke-width="1" stroke="#797979" fill="none" />
  <path d="M 483.5 507.75  C 481.68 507.75  480.25 506.32  480.25 504.5  C 480.25 502.68  481.68 501.25  483.5 501.25  C 485.32 501.25  486.75 502.68  486.75 504.5  C 486.75 506.32  485.32 507.75  483.5 507.75  " fill-rule="nonzero" fill="#797979" stroke="none" />
</svg>