<?xml version="1.0" encoding="utf-8"?>
<svg version="1.1" xmlns:xlink="http://www.w3.org/1999/xlink" width="13px" height="13px" viewBox="324 212  13 13" xmlns="http://www.w3.org/2000/svg">
  <path d="M 330.5 212  C 334.14 212  337 214.86  337 218.5  C 337 222.14  334.14 225  330.5 225  C 326.86 225  324 222.14  324 218.5  C 324 214.86  326.86 212  330.5 212  Z " fill-rule="nonzero" fill="#ffffff" stroke="none" />
  <path d="M 330.5 212.5  C 333.86 212.5  336.5 215.14  336.5 218.5  C 336.5 221.86  333.86 224.5  330.5 224.5  C 327.14 224.5  324.5 221.86  324.5 218.5  C 324.5 215.14  327.14 212.5  330.5 212.5  Z " stroke-width="1" stroke="#797979" fill="none" />
  <path d="M 330.5 221.75  C 328.68 221.75  327.25 220.32  327.25 218.5  C 327.25 216.68  328.68 215.25  330.5 215.25  C 332.32 215.25  333.75 216.68  333.75 218.5  C 333.75 220.32  332.32 221.75  330.5 221.75  " fill-rule="nonzero" fill="#797979" stroke="none" />
</svg>