<?xml version="1.0" encoding="utf-8"?>
<svg version="1.1" xmlns:xlink="http://www.w3.org/1999/xlink" width="13px" height="13px" viewBox="138 212  13 13" xmlns="http://www.w3.org/2000/svg">
  <path d="M 144.5 212  C 148.14 212  151 214.86  151 218.5  C 151 222.14  148.14 225  144.5 225  C 140.86 225  138 222.14  138 218.5  C 138 214.86  140.86 212  144.5 212  Z " fill-rule="nonzero" fill="#f0f0f0" stroke="none" />
  <path d="M 144.5 212.5  C 147.86 212.5  150.5 215.14  150.5 218.5  C 150.5 221.86  147.86 224.5  144.5 224.5  C 141.14 224.5  138.5 221.86  138.5 218.5  C 138.5 215.14  141.14 212.5  144.5 212.5  Z " stroke-width="1" stroke="#797979" fill="none" />
  <path d="M 144.5 221.75  C 142.68 221.75  141.25 220.32  141.25 218.5  C 141.25 216.68  142.68 215.25  144.5 215.25  C 146.32 215.25  147.75 216.68  147.75 218.5  C 147.75 220.32  146.32 221.75  144.5 221.75  " fill-rule="nonzero" fill="#797979" stroke="none" />
</svg>