<?xml version="1.0" encoding="utf-8"?>
<svg version="1.1" xmlns:xlink="http://www.w3.org/1999/xlink" width="13px" height="13px" viewBox="515 309  13 13" xmlns="http://www.w3.org/2000/svg">
  <path d="M 521.5 309  C 525.14 309  528 311.86  528 315.5  C 528 319.14  525.14 322  521.5 322  C 517.86 322  515 319.14  515 315.5  C 515 311.86  517.86 309  521.5 309  Z " fill-rule="nonzero" fill="#f0f0f0" stroke="none" />
  <path d="M 521.5 309.5  C 524.86 309.5  527.5 312.14  527.5 315.5  C 527.5 318.86  524.86 321.5  521.5 321.5  C 518.14 321.5  515.5 318.86  515.5 315.5  C 515.5 312.14  518.14 309.5  521.5 309.5  Z " stroke-width="1" stroke="#797979" fill="none" />
  <path d="M 521.5 318.75  C 519.68 318.75  518.25 317.32  518.25 315.5  C 518.25 313.68  519.68 312.25  521.5 312.25  C 523.32 312.25  524.75 313.68  524.75 315.5  C 524.75 317.32  523.32 318.75  521.5 318.75  " fill-rule="nonzero" fill="#797979" stroke="none" />
</svg>