<?xml version="1.0" encoding="utf-8"?>
<svg version="1.1" xmlns:xlink="http://www.w3.org/1999/xlink" width="13px" height="13px" viewBox="510 212  13 13" xmlns="http://www.w3.org/2000/svg">
  <path d="M 516.5 212  C 520.14 212  523 214.86  523 218.5  C 523 222.14  520.14 225  516.5 225  C 512.86 225  510 222.14  510 218.5  C 510 214.86  512.86 212  516.5 212  Z " fill-rule="nonzero" fill="#f0f0f0" stroke="none" />
  <path d="M 516.5 212.5  C 519.86 212.5  522.5 215.14  522.5 218.5  C 522.5 221.86  519.86 224.5  516.5 224.5  C 513.14 224.5  510.5 221.86  510.5 218.5  C 510.5 215.14  513.14 212.5  516.5 212.5  Z " stroke-width="1" stroke="#797979" fill="none" />
  <path d="M 516.5 221.75  C 514.68 221.75  513.25 220.32  513.25 218.5  C 513.25 216.68  514.68 215.25  516.5 215.25  C 518.32 215.25  519.75 216.68  519.75 218.5  C 519.75 220.32  518.32 221.75  516.5 221.75  " fill-rule="nonzero" fill="#797979" stroke="none" />
</svg>